<?xml version="1.0" encoding="UTF-8" standalone="no"?>
<!DOCTYPE svg PUBLIC "-//W3C//DTD SVG 1.1//EN"
 "http://www.w3.org/Graphics/SVG/1.1/DTD/svg11.dtd">
<!-- Generated by graphviz version 2.36.0 (20140111.2315)
 -->
<!-- Title: controllers_diagram Pages: 1 -->
<svg width="428pt" height="344pt"
 viewBox="0.00 0.00 428.00 344.00" xmlns="http://www.w3.org/2000/svg" xmlns:xlink="http://www.w3.org/1999/xlink">
<g id="graph0" class="graph" transform="scale(1 1) rotate(0) translate(4 340)">
<title>controllers_diagram</title>
<polygon fill="none" stroke="none" points="-4,4 -4,-340 424,-340 424,4 -4,4"/>
<!-- _diagram_info -->
<g id="node1" class="node"><title>_diagram_info</title>
<text text-anchor="start" x="8" y="-143.6" font-family="Times,serif" font-size="13.00">Controllers diagram</text>
<text text-anchor="start" x="8" y="-129.6" font-family="Times,serif" font-size="13.00">Date: Mar 15 2016 &#45; 13:06</text>
<text text-anchor="start" x="8" y="-115.6" font-family="Times,serif" font-size="13.00">Migration version: 20160314192822</text>
<text text-anchor="start" x="8" y="-101.6" font-family="Times,serif" font-size="13.00">Generated by RailRoady 1.4.2</text>
<text text-anchor="start" x="8" y="-87.6" font-family="Times,serif" font-size="13.00">http://railroady.prestonlee.com</text>
</g>
<!-- Api::Webapp::CondosController -->
<g id="node2" class="node"><title>Api::Webapp::CondosController</title>
<path fill="none" stroke="black" d="M188,-192.5C188,-192.5 358,-192.5 358,-192.5 364,-192.5 370,-198.5 370,-204.5 370,-204.5 370,-274.5 370,-274.5 370,-280.5 364,-286.5 358,-286.5 358,-286.5 188,-286.5 188,-286.5 182,-286.5 176,-280.5 176,-274.5 176,-274.5 176,-204.5 176,-204.5 176,-198.5 182,-192.5 188,-192.5"/>
<text text-anchor="middle" x="273" y="-271.3" font-family="Times,serif" font-size="14.00">Api::Webapp::CondosController</text>
<polyline fill="none" stroke="black" points="176,-263.5 370,-263.5 "/>
<text text-anchor="start" x="184" y="-248.3" font-family="Times,serif" font-size="14.00">index</text>
<polyline fill="none" stroke="black" points="176,-240.5 370,-240.5 "/>
<polyline fill="none" stroke="black" points="176,-216.5 370,-216.5 "/>
</g>
<!-- Api::Webapp::PlotsController -->
<g id="node3" class="node"><title>Api::Webapp::PlotsController</title>
<path fill="none" stroke="black" d="M252,-0.5C252,-0.5 408,-0.5 408,-0.5 414,-0.5 420,-6.5 420,-12.5 420,-12.5 420,-82.5 420,-82.5 420,-88.5 414,-94.5 408,-94.5 408,-94.5 252,-94.5 252,-94.5 246,-94.5 240,-88.5 240,-82.5 240,-82.5 240,-12.5 240,-12.5 240,-6.5 246,-0.5 252,-0.5"/>
<text text-anchor="middle" x="330" y="-79.3" font-family="Times,serif" font-size="14.00">Api::Webapp::PlotsController</text>
<polyline fill="none" stroke="black" points="240,-71.5 420,-71.5 "/>
<text text-anchor="start" x="248" y="-56.3" font-family="Times,serif" font-size="14.00">index</text>
<polyline fill="none" stroke="black" points="240,-48.5 420,-48.5 "/>
<polyline fill="none" stroke="black" points="240,-24.5 420,-24.5 "/>
</g>
<!-- ApplicationController -->
<g id="node4" class="node"><title>ApplicationController</title>
<path fill="none" stroke="black" d="M12,-240.5C12,-240.5 124,-240.5 124,-240.5 130,-240.5 136,-246.5 136,-252.5 136,-252.5 136,-323.5 136,-323.5 136,-329.5 130,-335.5 124,-335.5 124,-335.5 12,-335.5 12,-335.5 6,-335.5 -1.42109e-14,-329.5 -1.42109e-14,-323.5 -1.42109e-14,-323.5 -1.42109e-14,-252.5 -1.42109e-14,-252.5 -1.42109e-14,-246.5 6,-240.5 12,-240.5"/>
<text text-anchor="middle" x="68" y="-320.3" font-family="Times,serif" font-size="14.00">ApplicationController</text>
<polyline fill="none" stroke="black" points="-1.42109e-14,-312.5 136,-312.5 "/>
<polyline fill="none" stroke="black" points="-1.42109e-14,-288.5 136,-288.5 "/>
<polyline fill="none" stroke="black" points="-1.42109e-14,-264.5 136,-264.5 "/>
</g>
</g>
</svg>
