<?xml version="1.0" encoding="UTF-8" standalone="no"?>
<!DOCTYPE svg PUBLIC "-//W3C//DTD SVG 1.1//EN"
 "http://www.w3.org/Graphics/SVG/1.1/DTD/svg11.dtd">
<!-- Generated by graphviz version 2.36.0 (20140111.2315)
 -->
<!-- Title: models_diagram Pages: 1 -->
<svg width="1007pt" height="188pt"
 viewBox="0.00 0.00 1007.00 188.00" xmlns="http://www.w3.org/2000/svg" xmlns:xlink="http://www.w3.org/1999/xlink">
<g id="graph0" class="graph" transform="scale(1 1) rotate(0) translate(4 184)">
<title>models_diagram</title>
<polygon fill="none" stroke="none" points="-4,4 -4,-184 1003,-184 1003,4 -4,4"/>
<!-- _diagram_info -->
<g id="node1" class="node"><title>_diagram_info</title>
<text text-anchor="start" x="7" y="-150.6" font-family="Times,serif" font-size="13.00">Models diagram</text>
<text text-anchor="start" x="7" y="-136.6" font-family="Times,serif" font-size="13.00">Date: Mar 15 2016 &#45; 13:06</text>
<text text-anchor="start" x="7" y="-122.6" font-family="Times,serif" font-size="13.00">Migration version: 20160314192822</text>
<text text-anchor="start" x="7" y="-108.6" font-family="Times,serif" font-size="13.00">Generated by RailRoady 1.4.2</text>
<text text-anchor="start" x="7" y="-94.6" font-family="Times,serif" font-size="13.00">http://railroady.prestonlee.com</text>
</g>
<!-- Measure -->
<g id="node2" class="node"><title>Measure</title>
<path fill="none" stroke="black" d="M243,-73C243,-73 463,-73 463,-73 469,-73 475,-79 475,-85 475,-85 475,-167 475,-167 475,-173 469,-179 463,-179 463,-179 243,-179 243,-179 237,-179 231,-173 231,-167 231,-167 231,-85 231,-85 231,-79 237,-73 243,-73"/>
<text text-anchor="middle" x="353" y="-163.8" font-family="Times,serif" font-size="14.00">Measure</text>
<polyline fill="none" stroke="black" points="231,-156 475,-156 "/>
<text text-anchor="start" x="239" y="-140.8" font-family="Times,serif" font-size="14.00">id :integer</text>
<text text-anchor="start" x="239" y="-125.8" font-family="Times,serif" font-size="14.00">meter_id :integer</text>
<text text-anchor="start" x="239" y="-110.8" font-family="Times,serif" font-size="14.00">value :integer</text>
<text text-anchor="start" x="239" y="-95.8" font-family="Times,serif" font-size="14.00">created_at :timestamp without time zone</text>
<text text-anchor="start" x="239" y="-80.8" font-family="Times,serif" font-size="14.00">updated_at :timestamp without time zone</text>
</g>
<!-- Condo -->
<g id="node3" class="node"><title>Condo</title>
<path fill="none" stroke="black" d="M505,-73C505,-73 725,-73 725,-73 731,-73 737,-79 737,-85 737,-85 737,-167 737,-167 737,-173 731,-179 725,-179 725,-179 505,-179 505,-179 499,-179 493,-173 493,-167 493,-167 493,-85 493,-85 493,-79 499,-73 505,-73"/>
<text text-anchor="middle" x="615" y="-163.8" font-family="Times,serif" font-size="14.00">Condo</text>
<polyline fill="none" stroke="black" points="493,-156 737,-156 "/>
<text text-anchor="start" x="501" y="-140.8" font-family="Times,serif" font-size="14.00">id :integer</text>
<text text-anchor="start" x="501" y="-125.8" font-family="Times,serif" font-size="14.00">name :character varying</text>
<text text-anchor="start" x="501" y="-110.8" font-family="Times,serif" font-size="14.00">created_at :timestamp without time zone</text>
<text text-anchor="start" x="501" y="-95.8" font-family="Times,serif" font-size="14.00">updated_at :timestamp without time zone</text>
<text text-anchor="start" x="501" y="-80.8" font-family="Times,serif" font-size="14.00">description :text</text>
</g>
<!-- Plot -->
<g id="node5" class="node"><title>Plot</title>
<ellipse fill="none" stroke="black" cx="615" cy="-18" rx="27" ry="18"/>
<text text-anchor="middle" x="615" y="-14.3" font-family="Times,serif" font-size="14.00">Plot</text>
</g>
<!-- Condo&#45;&gt;Plot -->
<g id="edge1" class="edge"><title>Condo&#45;&gt;Plot</title>
<path fill="none" stroke="#5f4f00" d="M615,-64.9094C615,-58.5528 615,-52.3348 615,-46.63"/>
<ellipse fill="none" stroke="#5f4f00" cx="615" cy="-68.9316" rx="4" ry="4"/>
<polygon fill="#5f4f00" stroke="#5f4f00" points="615,-46.3906 619.5,-36.3906 615,-41.3906 615,-36.3906 615,-36.3906 615,-36.3906 615,-41.3906 610.5,-36.3906 615,-46.3906 615,-46.3906"/>
</g>
<!-- Owner -->
<g id="node4" class="node"><title>Owner</title>
<path fill="none" stroke="black" d="M767,-73C767,-73 987,-73 987,-73 993,-73 999,-79 999,-85 999,-85 999,-167 999,-167 999,-173 993,-179 987,-179 987,-179 767,-179 767,-179 761,-179 755,-173 755,-167 755,-167 755,-85 755,-85 755,-79 761,-73 767,-73"/>
<text text-anchor="middle" x="877" y="-163.8" font-family="Times,serif" font-size="14.00">Owner</text>
<polyline fill="none" stroke="black" points="755,-156 999,-156 "/>
<text text-anchor="start" x="763" y="-140.8" font-family="Times,serif" font-size="14.00">id :integer</text>
<text text-anchor="start" x="763" y="-125.8" font-family="Times,serif" font-size="14.00">name :character varying</text>
<text text-anchor="start" x="763" y="-110.8" font-family="Times,serif" font-size="14.00">rut :character varying</text>
<text text-anchor="start" x="763" y="-95.8" font-family="Times,serif" font-size="14.00">created_at :timestamp without time zone</text>
<text text-anchor="start" x="763" y="-80.8" font-family="Times,serif" font-size="14.00">updated_at :timestamp without time zone</text>
</g>
</g>
</svg>
