<?xml version="1.0" encoding="UTF-8" standalone="no"?>
<!DOCTYPE svg PUBLIC "-//W3C//DTD SVG 1.1//EN"
 "http://www.w3.org/Graphics/SVG/1.1/DTD/svg11.dtd">
<!-- Generated by graphviz version 2.36.0 (20140111.2315)
 -->
<!-- Title: models_diagram Pages: 1 -->
<svg width="496pt" height="158pt"
 viewBox="0.00 0.00 496.00 158.00" xmlns="http://www.w3.org/2000/svg" xmlns:xlink="http://www.w3.org/1999/xlink">
<g id="graph0" class="graph" transform="scale(1 1) rotate(0) translate(4 154)">
<title>models_diagram</title>
<polygon fill="none" stroke="none" points="-4,4 -4,-154 492,-154 492,4 -4,4"/>
<!-- _diagram_info -->
<g id="node1" class="node"><title>_diagram_info</title>
<text text-anchor="start" x="7" y="-135.6" font-family="Times,serif" font-size="13.00">Models diagram</text>
<text text-anchor="start" x="7" y="-121.6" font-family="Times,serif" font-size="13.00">Date: Mar 15 2016 &#45; 13:06</text>
<text text-anchor="start" x="7" y="-107.6" font-family="Times,serif" font-size="13.00">Migration version: 20160314192822</text>
<text text-anchor="start" x="7" y="-93.6" font-family="Times,serif" font-size="13.00">Generated by RailRoady 1.4.2</text>
<text text-anchor="start" x="7" y="-79.6" font-family="Times,serif" font-size="13.00">http://railroady.prestonlee.com</text>
</g>
<!-- Measure -->
<g id="node2" class="node"><title>Measure</title>
<ellipse fill="none" stroke="black" cx="273" cy="-111" rx="41.394" ry="18"/>
<text text-anchor="middle" x="273" y="-107.3" font-family="Times,serif" font-size="14.00">Measure</text>
</g>
<!-- Condo -->
<g id="node3" class="node"><title>Condo</title>
<ellipse fill="none" stroke="black" cx="367" cy="-111" rx="34.1708" ry="18"/>
<text text-anchor="middle" x="367" y="-107.3" font-family="Times,serif" font-size="14.00">Condo</text>
</g>
<!-- Plot -->
<g id="node5" class="node"><title>Plot</title>
<ellipse fill="none" stroke="black" cx="367" cy="-18" rx="27" ry="18"/>
<text text-anchor="middle" x="367" y="-14.3" font-family="Times,serif" font-size="14.00">Plot</text>
</g>
<!-- Condo&#45;&gt;Plot -->
<g id="edge1" class="edge"><title>Condo&#45;&gt;Plot</title>
<path fill="none" stroke="#b5c961" d="M367,-84.7285C367,-72.7246 367,-58.3622 367,-46.1291"/>
<ellipse fill="none" stroke="#b5c961" cx="367" cy="-88.8836" rx="4" ry="4"/>
<polygon fill="#b5c961" stroke="#b5c961" points="367,-46.0397 371.5,-36.0396 367,-41.0397 367,-36.0397 367,-36.0397 367,-36.0397 367,-41.0397 362.5,-36.0397 367,-46.0397 367,-46.0397"/>
</g>
<!-- Owner -->
<g id="node4" class="node"><title>Owner</title>
<ellipse fill="none" stroke="black" cx="454" cy="-111" rx="34.1708" ry="18"/>
<text text-anchor="middle" x="454" y="-107.3" font-family="Times,serif" font-size="14.00">Owner</text>
</g>
</g>
</svg>
